<?xml version="1.0" encoding="UTF-8" standalone="no"?>
<!DOCTYPE svg PUBLIC "-//W3C//DTD SVG 1.1//EN" "http://www.w3.org/Graphics/SVG/1.1/DTD/svg11.dtd">
<svg width="100%" height="100%" viewBox="0 0 880 874" version="1.1" xmlns="http://www.w3.org/2000/svg" xmlns:xlink="http://www.w3.org/1999/xlink" xml:space="preserve" xmlns:serif="http://www.serif.com/" style="fill-rule:evenodd;clip-rule:evenodd;stroke-linejoin:round;stroke-miterlimit:2;">
    <g transform="matrix(1,0,0,1,-371.921946,-1311.194569)">
        <g transform="matrix(1.527744,0,0,1.570027,-4344.902589,-742.622658)">
            <g transform="matrix(0.65456,0,0,0.636932,3012.876513,-156.925568)">
                <path d="M670.533,2915.511C687.256,2914.28 704.096,2911.756 720.937,2907.867C865.187,2874.56 965.465,2751.288 976.187,2611.004C978.464,2618.858 980.537,2626.818 982.399,2634.883C1037.014,2871.412 889.322,3107.785 652.793,3162.399C416.263,3217.014 179.891,3069.322 125.276,2832.793C70.661,2596.263 218.353,2359.891 454.883,2305.276C463.328,2303.326 471.773,2301.634 480.209,2300.195C358.352,2371.179 291.178,2515.649 324.554,2660.196C328.989,2679.403 335.018,2697.83 342.471,2715.369L244.268,2765.86L371.094,2768.531C424.88,2849.542 512.42,2903.23 609.207,2914.283L667.252,3024.726L670.533,2915.511ZM654.341,2968.814L559.108,2787.609C554.32,2778.497 547.131,2770.828 538.279,2765.41C529.487,2760.029 519.372,2757.068 508.983,2756.849L302.16,2752.493L486.136,2657.902C495.377,2653.15 503.17,2646.054 508.713,2637.363C514.294,2628.613 517.392,2618.568 517.701,2608.279L523.849,2403.665L619.082,2584.87C623.871,2593.982 631.059,2601.652 639.911,2607.069C648.704,2612.45 658.818,2615.412 669.207,2615.63L876.03,2619.986L692.054,2714.578C682.813,2719.329 675.02,2726.426 669.477,2735.116C663.896,2743.867 660.798,2753.911 660.489,2764.2L654.341,2968.814ZM425.505,2489.333L424.997,2537.139C424.982,2538.548 425.397,2539.969 426.199,2541.252C427.001,2542.535 428.16,2543.633 429.557,2544.433L476.901,2571.562L422.527,2566.985C420.924,2566.85 419.345,2567.096 417.956,2567.696C416.568,2568.296 415.419,2569.229 414.63,2570.398L387.886,2610.025L388.394,2562.22C388.409,2560.81 387.994,2559.389 387.192,2558.107C386.39,2556.824 385.23,2555.725 383.834,2554.925L336.49,2527.796L390.864,2532.373C392.467,2532.508 394.045,2532.262 395.434,2531.662C396.823,2531.062 397.972,2530.129 398.76,2528.961L425.505,2489.333ZM702.197,2423.945L728.964,2463.558C729.754,2464.726 730.903,2465.658 732.292,2466.258C733.681,2466.857 735.259,2467.101 736.863,2466.966L791.234,2462.358L743.905,2489.514C742.509,2490.315 741.35,2491.414 740.549,2492.697C739.748,2493.981 739.334,2495.401 739.35,2496.811L739.885,2544.616L713.118,2505.004C712.328,2503.836 711.179,2502.903 709.79,2502.304C708.401,2501.705 706.822,2501.46 705.219,2501.596L650.848,2506.203L698.177,2479.048C699.572,2478.247 700.731,2477.148 701.532,2475.864C702.334,2474.581 702.748,2473.161 702.732,2471.751L702.197,2423.945ZM787.018,2716.011L800.065,2762.005C800.449,2763.361 801.25,2764.606 802.382,2765.609C803.514,2766.613 804.937,2767.338 806.503,2767.71L859.591,2780.326L806.145,2791.33C804.569,2791.654 803.125,2792.336 801.963,2793.305C800.801,2794.274 799.963,2795.494 799.538,2796.838L785.106,2842.416L772.059,2796.422C771.674,2795.066 770.874,2793.821 769.742,2792.818C768.61,2791.814 767.187,2791.089 765.621,2790.717L712.533,2778.101L765.978,2767.097C767.555,2766.773 768.999,2766.091 770.161,2765.122C771.323,2764.153 772.16,2762.933 772.586,2761.589L787.018,2716.011Z" style="fill:url(#_Linear1);"/>
            </g>
        </g>
    </g>
    <defs>
        <linearGradient id="_Linear1" x1="0" y1="0" x2="1" y2="0" gradientUnits="userSpaceOnUse" gradientTransform="matrix(879.831417,0,0,873.558794,113.921946,2736.973966)"><stop offset="0" style="stop-color:rgb(91,138,252);stop-opacity:1"/><stop offset="1" style="stop-color:rgb(56,107,227);stop-opacity:1"/></linearGradient>
    </defs>
</svg>
