<?xml version="1.0" encoding="UTF-8" standalone="no"?>
<!DOCTYPE svg PUBLIC "-//W3C//DTD SVG 1.1//EN" "http://www.w3.org/Graphics/SVG/1.1/DTD/svg11.dtd">
<svg width="100%" height="100%" viewBox="0 0 1830 704" version="1.1" xmlns="http://www.w3.org/2000/svg" xmlns:xlink="http://www.w3.org/1999/xlink" xml:space="preserve" xmlns:serif="http://www.serif.com/" style="fill-rule:evenodd;clip-rule:evenodd;stroke-linecap:round;stroke-linejoin:round;stroke-miterlimit:1.5;">
    <g transform="matrix(1,0,0,1,-271.432529,-2301.607675)">
        <g transform="matrix(0.958999,0.283408,-0.283408,0.958999,461.808314,1096.842318)">
            <g transform="matrix(1.173502,0,0,1.149842,-32.078864,-106.539432)">
                <path d="M797.719,1507.731C800.582,1506.171 804.121,1506.826 806.265,1509.314C808.409,1511.802 808.594,1515.468 806.711,1518.167C749.24,1599.123 654.746,1652 548,1652C373.043,1652 231,1509.957 231,1335C231,1246.165 267.62,1165.816 326.575,1108.238C328.81,1106.08 332.217,1105.805 334.757,1107.578C337.296,1109.351 338.28,1112.692 337.119,1115.599C323.605,1150.658 316.215,1188.663 316.215,1228.351C316.215,1404.446 461.695,1547.412 640.884,1547.412C697.748,1547.412 751.216,1533.015 797.719,1507.731Z" style="fill:rgb(44,126,222);"/>
            </g>
        </g>
        <g transform="matrix(0.958999,0.283408,-0.283408,0.958999,461.808314,1096.842318)">
            <g transform="matrix(1,0,0,1,-1020,244)">
                <path d="M1602.5,978L1620.793,1039.207L1682,1057.5L1620.793,1075.793L1602.5,1137L1584.207,1075.793L1523,1057.5L1584.207,1039.207L1602.5,978Z" style="fill:rgb(44,126,222);stroke:rgb(44,126,222);stroke-width:8.33px;"/>
            </g>
        </g>
        <g transform="matrix(0.958999,0.283408,-0.283408,0.958999,461.808314,1096.842318)">
            <g transform="matrix(0.685535,0,0,0.685535,-540.069182,790.54717)">
                <path d="M1602.5,978L1620.793,1039.207L1682,1057.5L1620.793,1075.793L1602.5,1137L1584.207,1075.793L1523,1057.5L1584.207,1039.207L1602.5,978Z" style="fill:rgb(44,126,222);stroke:rgb(44,126,222);stroke-width:12.16px;"/>
            </g>
        </g>
        <g transform="matrix(0.958999,0.283408,-0.283408,0.958999,461.808314,1096.842318)">
            <g transform="matrix(0.805031,0,0,0.805031,-539.062893,588.679245)">
                <path d="M1602.5,978L1620.793,1039.207L1682,1057.5L1620.793,1075.793L1602.5,1137L1584.207,1075.793L1523,1057.5L1584.207,1039.207L1602.5,978Z" style="fill:rgb(44,126,222);stroke:rgb(44,126,222);stroke-width:10.35px;"/>
            </g>
        </g>
        <g transform="matrix(1,0,0,1,63,1137)">
            <g transform="matrix(1,0,0,1,-103,966)">
                <g transform="matrix(141.666667,0,0,141.666667,2144.4,489.166667)">
                </g>
                <text x="1002px" y="489.167px" style="font-family:'Aeonik-Bold', 'Aeonik', sans-serif;font-weight:700;font-size:141.667px;">Th<tspan x="1169.592px " y="489.167px ">e</tspan> Stig Initiativ<tspan x="2062.092px " y="489.167px ">e</tspan></text>
            </g>
        </g>
        <g transform="matrix(1,0,0,1,63,1137)">
            <g transform="matrix(1,0,0,1,-103,1138)">
                <g transform="matrix(75,0,0,75,1958.775,442.5)">
                </g>
                <text x="1002px" y="442.5px" style="font-family:'Aeonik-Medium', 'Aeonik', sans-serif;font-weight:500;font-size:75px;fill:rgb(131,131,131);">Th<tspan x="1088.775px " y="442.5px ">e</tspan> Ja<tspan x="1219.425px " y="442.5px ">c</tspan>k Murr<tspan x="1478.85px 1518.45px " y="442.5px 442.5px ">ay</tspan> F<tspan x="1613.7px " y="442.5px ">o</tspan>un<tspan x="1743.075px " y="442.5px ">d</tspan>ation</text>
            </g>
        </g>
    </g>
</svg>
