<?xml version="1.0" encoding="UTF-8" standalone="no"?>
<!DOCTYPE svg PUBLIC "-//W3C//DTD SVG 1.1//EN" "http://www.w3.org/Graphics/SVG/1.1/DTD/svg11.dtd">
<svg width="100%" height="100%" viewBox="0 0 630 704" version="1.1" xmlns="http://www.w3.org/2000/svg" xmlns:xlink="http://www.w3.org/1999/xlink" xml:space="preserve" xmlns:serif="http://www.serif.com/" style="fill-rule:evenodd;clip-rule:evenodd;stroke-linecap:round;stroke-linejoin:round;stroke-miterlimit:1.5;">
    <g transform="matrix(1,0,0,1,-942.432529,-183.607675)">
        <g transform="matrix(0.958999,0.283408,-0.283408,0.958999,1132.808314,-1021.157682)">
            <g transform="matrix(1.173502,0,0,1.149842,-32.078864,-106.539432)">
                <path d="M797.719,1507.731C800.582,1506.171 804.121,1506.826 806.265,1509.314C808.409,1511.802 808.594,1515.468 806.711,1518.167C749.24,1599.123 654.746,1652 548,1652C373.043,1652 231,1509.957 231,1335C231,1246.165 267.62,1165.816 326.575,1108.238C328.81,1106.08 332.217,1105.805 334.757,1107.578C337.296,1109.351 338.28,1112.692 337.119,1115.599C323.605,1150.658 316.215,1188.663 316.215,1228.351C316.215,1404.446 461.695,1547.412 640.884,1547.412C697.748,1547.412 751.216,1533.015 797.719,1507.731Z" style="fill:rgb(44,126,222);"/>
            </g>
        </g>
        <g transform="matrix(0.958999,0.283408,-0.283408,0.958999,1132.808314,-1021.157682)">
            <g transform="matrix(1,0,0,1,-1020,244)">
                <path d="M1602.5,978L1620.793,1039.207L1682,1057.5L1620.793,1075.793L1602.5,1137L1584.207,1075.793L1523,1057.5L1584.207,1039.207L1602.5,978Z" style="fill:rgb(44,126,222);stroke:rgb(44,126,222);stroke-width:8.33px;"/>
            </g>
        </g>
        <g transform="matrix(0.958999,0.283408,-0.283408,0.958999,1132.808314,-1021.157682)">
            <g transform="matrix(0.685535,0,0,0.685535,-540.069182,790.54717)">
                <path d="M1602.5,978L1620.793,1039.207L1682,1057.5L1620.793,1075.793L1602.5,1137L1584.207,1075.793L1523,1057.5L1584.207,1039.207L1602.5,978Z" style="fill:rgb(44,126,222);stroke:rgb(44,126,222);stroke-width:12.16px;"/>
            </g>
        </g>
        <g transform="matrix(0.958999,0.283408,-0.283408,0.958999,1132.808314,-1021.157682)">
            <g transform="matrix(0.805031,0,0,0.805031,-539.062893,588.679245)">
                <path d="M1602.5,978L1620.793,1039.207L1682,1057.5L1620.793,1075.793L1602.5,1137L1584.207,1075.793L1523,1057.5L1584.207,1039.207L1602.5,978Z" style="fill:rgb(44,126,222);stroke:rgb(44,126,222);stroke-width:10.35px;"/>
            </g>
        </g>
    </g>
</svg>
