<svg xmlns="http://www.w3.org/2000/svg" viewBox="0 0 389.57 221.26"><defs><style>.cls-1{fill:#e86d1f;}.cls-2{fill:#fff;}</style></defs><g id="Layer_2" data-name="Layer 2"><g id="Layer_1-2" data-name="Layer 1"><path class="cls-1" d="M373,0,11,11.15A11.34,11.34,0,0,0,0,22.84l3.4,110.6a11.36,11.36,0,0,0,11.69,11l218.27-6.72c14.42,32.94,38.5,28.79,38.5,28.79a75.44,75.44,0,0,1-1.73-14.75c-.24-7.6,1.12-12.1,3.28-15.28l103.67-3.19a11.35,11.35,0,0,0,11-11.69L384.67,11A11.33,11.33,0,0,0,373,0"/><path class="cls-2" d="M23.72,47.35c-.17-5.47,3.24-8.64,7.94-8.78s8.3,2.81,8.46,8.27l1.69,54.89,19.46-.6a7.43,7.43,0,0,1,8.12,7.63,7.67,7.67,0,0,1-7.65,7.46l-27.34.84c-5.35.17-8.63-3.24-8.8-8.7Z"/><path class="cls-2" d="M72.44,65.77c-.16-5.25,3-8.85,7.61-9s8,3.25,8.14,8.5l1.29,42c.16,5.25-3,8.84-7.6,9s-8-3.25-8.14-8.5Zm16-24.24a9,9,0,0,1-8.58,9.34,9.23,9.23,0,0,1-9.13-8.8,8.86,8.86,0,0,1,17.71-.54"/><path class="cls-2" d="M102.9,70.52l-3.5.11c-4.26.12-7-2.41-7.1-6.68A6.73,6.73,0,0,1,99,56.85l3.5-.11-.25-8.09c-.36-11.59,6.33-18.14,16-18.44,5.58-.17,11,1.31,11.16,6.77.14,4.59-1.88,6.74-6.25,6.87-2.62.08-5.25.16-5.07,6l.2,6.45,4.92-.15c4.7-.15,8,1.61,8.19,6.64s-3.17,7-7.76,7.13l-4.93.15,1.12,36.3c.16,5.25-3,8.85-7.6,9s-8-3.25-8.15-8.5Z"/><path class="cls-2" d="M171.54,78.47c-1.09-6.86-5.62-11.87-12.94-11.64-7,.22-11.54,5.72-12.1,12.41ZM147.16,89.73c1.33,7.73,7.89,11.14,15.21,10.91,8.1-.25,13.48-6.76,17.63-6.89,3.39-.1,6.56,3.19,6.66,6.58.21,6.78-13.58,13.77-25.28,14.13-17.71.55-29.92-12-30.46-29.38-.49-16,10.65-30.85,27.27-31.37,17.06-.52,28.8,14.65,29.2,27.78.15,4.7-1.86,7.06-6.67,7.2Z"/><path class="cls-2" d="M193.56,36.64c-.16-5.24,3-8.85,7.61-9s8,3.26,8.14,8.51l2.07,67.35c.16,5.25-3,8.84-7.6,9s-8-3.26-8.14-8.51Z"/><path class="cls-2" d="M220.8,61.2c-.16-5.25,3-8.85,7.6-9s8,3.26,8.14,8.51l1.3,42c.16,5.24-3,8.84-7.6,9s-8-3.26-8.15-8.51ZM236.8,37a9,9,0,0,1-8.58,9.35,9.24,9.24,0,0,1-9.13-8.81A8.86,8.86,0,0,1,236.8,37"/><path class="cls-2" d="M247.47,60.38c-.16-5.26,3-8.85,7.61-9,4-.12,6.74,2,7.39,5.58,2.93-4.36,7.57-6.69,15-6.92,12.35-.38,21.78,7.21,22.19,20.55l.93,30.17c.16,5.25-3,8.85-7.6,9s-8-3.25-8.14-8.5L284,73.8c-.23-7.32-4.92-10.68-10.61-10.5-6.45.2-9.91,5-9.73,11.13l.85,27.44c.17,5.25-3,8.85-7.6,9s-8-3.25-8.15-8.5Z"/><path class="cls-2" d="M348.33,73c-1.09-6.86-5.62-11.87-12.95-11.64-7,.22-11.53,5.72-12.09,12.41ZM323.94,84.29c1.33,7.72,7.9,11.13,15.22,10.91,8.09-.25,13.47-6.76,17.63-6.89,3.39-.11,6.55,3.18,6.65,6.58.22,6.77-13.57,13.77-25.27,14.13-17.72.54-29.92-12-30.46-29.38-.49-16,10.65-30.86,27.27-31.38,17-.52,28.8,14.66,29.2,27.78.14,4.7-1.86,7.06-6.67,7.21Z"/><path class="cls-1" d="M5.12,200.47c0-9.2,3.56-20.79,15-20.79s15,11.59,15,20.79-3.56,20.79-15,20.79S5.12,209.68,5.12,200.47Zm21.13,0c0-4.29-.4-13.1-6.16-13.1s-6.16,8.81-6.16,13.1c0,4,.4,13.11,6.16,13.11S26.25,204.48,26.25,200.47Z"/><path class="cls-1" d="M38.56,208.38a10.83,10.83,0,0,1,6-9.77,9.54,9.54,0,0,1-4.3-8.08c0-6.61,5.48-10.85,12.2-10.85,6.56,0,12.26,4.18,12.26,10.85a9.6,9.6,0,0,1-4.35,8.08,10.54,10.54,0,0,1,6,9.77c0,7.85-6.39,12.88-14,12.88C44.72,221.26,38.56,216,38.56,208.38Zm8.81-.56c0,2.88,1.7,5.65,5.14,5.65,3.22,0,5.14-2.77,5.14-5.65,0-3.56-2-5.65-5.14-5.65C49.24,202.17,47.37,204.65,47.37,207.82Zm1.08-16.39c0,2.55,1.46,4.3,4.06,4.3s4.13-1.75,4.13-4.3a4,4,0,0,0-4.13-4.29C49.86,187.14,48.45,189,48.45,191.43Z"/><path class="cls-1" d="M70,200.47c0-9.2,3.55-20.79,15-20.79s15,11.59,15,20.79-3.56,20.79-15,20.79S70,209.68,70,200.47Zm21.12,0c0-4.29-.39-13.1-6.15-13.1s-6.16,8.81-6.16,13.1c0,4,.39,13.11,6.16,13.11S91.09,204.48,91.09,200.47Z"/><path class="cls-1" d="M103.41,208.38a10.83,10.83,0,0,1,6-9.77,9.55,9.55,0,0,1-4.29-8.08c0-6.61,5.48-10.85,12.2-10.85,6.55,0,12.26,4.18,12.26,10.85a9.6,9.6,0,0,1-4.35,8.08,10.53,10.53,0,0,1,6,9.77c0,7.85-6.38,12.88-14,12.88C109.57,221.26,103.41,216,103.41,208.38Zm8.81-.56c0,2.88,1.69,5.65,5.14,5.65,3.22,0,5.14-2.77,5.14-5.65,0-3.56-2-5.65-5.14-5.65C114.08,202.17,112.22,204.65,112.22,207.82Zm1.07-16.39c0,2.55,1.47,4.3,4.07,4.3s4.12-1.75,4.12-4.3a4,4,0,0,0-4.12-4.29C114.7,187.14,113.29,189,113.29,191.43Z"/><path class="cls-1" d="M151,208.38a10.83,10.83,0,0,1,6-9.77,9.55,9.55,0,0,1-4.29-8.08c0-6.61,5.48-10.85,12.2-10.85,6.55,0,12.26,4.18,12.26,10.85a9.6,9.6,0,0,1-4.35,8.08,10.53,10.53,0,0,1,6,9.77c0,7.85-6.38,12.88-14,12.88C157.13,221.26,151,216,151,208.38Zm8.81-.56c0,2.88,1.69,5.65,5.14,5.65,3.22,0,5.14-2.77,5.14-5.65,0-3.56-2-5.65-5.14-5.65C161.64,202.17,159.78,204.65,159.78,207.82Zm1.07-16.39c0,2.55,1.47,4.3,4.07,4.3S169,194,169,191.43a4,4,0,0,0-4.12-4.29C162.26,187.14,160.85,189,160.85,191.43Z"/><path class="cls-1" d="M182.37,200.47c0-9.2,3.56-20.79,15-20.79s15,11.59,15,20.79-3.56,20.79-15,20.79S182.37,209.68,182.37,200.47Zm21.13,0c0-4.29-.4-13.1-6.16-13.1s-6.16,8.81-6.16,13.1c0,4,.4,13.11,6.16,13.11S203.5,204.48,203.5,200.47Z"/><path class="cls-1" d="M215.82,208.38a10.83,10.83,0,0,1,6-9.77,9.53,9.53,0,0,1-4.29-8.08c0-6.61,5.47-10.85,12.2-10.85,6.54,0,12.25,4.18,12.25,10.85a9.6,9.6,0,0,1-4.35,8.08,10.54,10.54,0,0,1,6.05,9.77c0,7.85-6.39,12.88-13.95,12.88C222,221.26,215.82,216,215.82,208.38Zm8.81-.56c0,2.88,1.69,5.65,5.14,5.65,3.22,0,5.14-2.77,5.14-5.65,0-3.56-2-5.65-5.14-5.65C226.49,202.17,224.63,204.65,224.63,207.82Zm1.07-16.39c0,2.55,1.47,4.3,4.07,4.3s4.12-1.75,4.12-4.3a4,4,0,0,0-4.12-4.29C227.11,187.14,225.7,189,225.7,191.43Z"/><path class="cls-1" d="M263.38,208.38a10.83,10.83,0,0,1,6-9.77,9.55,9.55,0,0,1-4.29-8.08c0-6.61,5.47-10.85,12.2-10.85,6.55,0,12.25,4.18,12.25,10.85a9.6,9.6,0,0,1-4.35,8.08,10.54,10.54,0,0,1,6,9.77c0,7.85-6.39,12.88-13.95,12.88C269.53,221.26,263.38,216,263.38,208.38Zm8.81-.56c0,2.88,1.69,5.65,5.14,5.65,3.22,0,5.14-2.77,5.14-5.65,0-3.56-2-5.65-5.14-5.65C274.05,202.17,272.19,204.65,272.19,207.82Zm1.07-16.39c0,2.55,1.47,4.3,4.07,4.3s4.12-1.75,4.12-4.3a4,4,0,0,0-4.12-4.29C274.67,187.14,273.26,189,273.26,191.43Z"/><path class="cls-1" d="M294.78,200.47c0-9.2,3.56-20.79,15-20.79s15,11.59,15,20.79-3.56,20.79-15,20.79S294.78,209.68,294.78,200.47Zm21.12,0c0-4.29-.39-13.1-6.15-13.1s-6.16,8.81-6.16,13.1c0,4,.4,13.11,6.16,13.11S315.9,204.48,315.9,200.47Z"/><path class="cls-1" d="M327.21,200.47c0-9.2,3.55-20.79,15-20.79s15,11.59,15,20.79-3.55,20.79-15,20.79S327.21,209.68,327.21,200.47Zm21.12,0c0-4.29-.39-13.1-6.15-13.1s-6.16,8.81-6.16,13.1c0,4,.39,13.11,6.16,13.11S348.33,204.48,348.33,200.47Z"/><path class="cls-1" d="M359.63,200.47c0-9.2,3.55-20.79,15-20.79s15,11.59,15,20.79-3.56,20.79-15,20.79S359.63,209.68,359.63,200.47Zm21.12,0c0-4.29-.39-13.1-6.16-13.1s-6.15,8.81-6.15,13.1c0,4,.4,13.11,6.15,13.11S380.75,204.48,380.75,200.47Z"/></g></g></svg>